<?xml version="1.0" standalone="no"?>
<!DOCTYPE svg PUBLIC "-//W3C//DTD SVG 20010904//EN"
 "http://www.w3.org/TR/2001/REC-SVG-20010904/DTD/svg10.dtd">
<svg version="1.0" xmlns="http://www.w3.org/2000/svg"
 width="534.000000pt" height="534.000000pt" viewBox="0 0 534.000000 534.000000"
 preserveAspectRatio="xMidYMid meet">
<metadata>
Created by potrace 1.14, written by Peter Selinger 2001-2017
</metadata>
<g transform="translate(0.000000,534.000000) scale(0.100000,-0.100000)"
fill="#000000" stroke="none">
<path d="M2100 4689 c-30 -5 -80 -13 -111 -19 -30 -5 -66 -10 -80 -10 -13 0
-31 -5 -39 -11 -16 -11 58 -4 117 11 17 4 34 6 36 4 4 -5 -25 -146 -43 -204
-5 -19 -15 -62 -21 -95 -16 -96 -57 -215 -72 -215 -5 0 -33 19 -61 43 -28 24
-78 63 -111 87 -33 24 -85 66 -115 93 -30 28 -76 66 -102 85 -27 18 -48 37
-48 42 0 6 120 57 178 75 13 4 22 9 19 11 -5 5 -84 -20 -132 -41 -99 -43 -125
-56 -125 -60 0 -2 7 -2 16 2 14 5 16 1 11 -28 -3 -19 -22 -124 -41 -234 -19
-110 -40 -233 -46 -272 -7 -40 -14 -73 -16 -73 -2 0 -25 20 -51 45 -26 24 -51
45 -55 45 -3 0 -47 33 -96 73 -50 39 -107 85 -126 100 -20 15 -36 34 -36 42 0
20 132 121 248 190 55 33 96 62 91 63 -20 7 -258 -146 -349 -224 -178 -153
-380 -417 -380 -499 0 -14 17 -53 38 -88 45 -74 102 -190 102 -209 0 -7 9 -24
20 -38 11 -14 20 -30 20 -37 0 -6 10 -31 21 -55 12 -23 25 -52 29 -63 5 -11
17 -41 29 -67 12 -26 21 -52 21 -58 0 -6 4 -18 9 -28 5 -9 14 -30 21 -47 7
-16 15 -37 19 -45 4 -8 18 -49 30 -90 27 -87 31 -99 60 -163 11 -26 21 -54 21
-62 0 -9 4 -23 10 -33 5 -9 28 -73 50 -142 23 -69 45 -134 49 -145 18 -41 45
-132 55 -185 4 -23 13 -55 37 -140 6 -19 15 -55 20 -80 8 -41 7 -46 -13 -62
-13 -10 -28 -18 -34 -18 -5 0 -28 -8 -50 -19 -21 -10 -57 -24 -79 -31 -22 -7
-48 -16 -57 -21 -10 -5 -26 -9 -36 -9 -10 0 -22 -4 -27 -8 -6 -5 -30 -14 -55
-21 -25 -7 -54 -17 -65 -21 -40 -16 -81 -28 -130 -40 -66 -15 -121 -29 -169
-43 -53 -15 -169 -14 -231 1 -27 7 -67 18 -87 23 -73 19 -140 -51 -125 -129
17 -83 30 -110 97 -197 27 -36 134 -135 160 -149 14 -7 50 -26 80 -42 30 -17
75 -36 100 -43 25 -7 54 -17 65 -21 56 -23 199 -37 452 -47 171 -6 243 1 243
23 0 8 -4 14 -10 14 -5 0 -10 7 -10 15 0 8 -4 15 -10 15 -5 0 -10 18 -10 40 0
22 5 40 10 40 6 0 10 6 10 14 0 8 4 16 8 18 4 2 18 20 30 41 17 30 22 53 21
105 -1 52 -3 60 -9 37 -5 -21 -8 -5 -9 55 0 58 2 80 9 70 8 -12 10 -9 10 12 0
15 5 30 10 33 6 3 10 14 10 23 0 10 9 24 20 32 11 8 20 19 20 24 0 6 -18 -8
-40 -29 -22 -21 -40 -35 -40 -29 0 5 20 30 45 54 25 24 45 41 45 36 0 -4 7 -1
15 8 8 8 15 19 15 24 0 5 26 27 57 48 32 22 64 45 71 52 7 6 17 12 22 12 5 0
15 6 22 13 22 20 95 57 114 57 16 0 17 2 4 10 -12 8 -9 10 13 10 15 0 27 5 27
10 0 6 6 10 14 10 8 0 40 14 71 30 31 17 69 30 84 30 20 0 23 2 11 10 -11 7
-7 10 18 10 17 0 32 5 32 10 0 6 9 10 21 10 11 0 17 5 14 10 -4 6 7 10 24 10
17 0 31 5 31 10 0 6 17 10 38 10 27 0 33 3 22 10 -11 7 -7 10 18 10 20 0 31 4
27 10 -4 6 9 10 32 10 28 0 34 3 23 10 -11 7 -7 10 18 10 20 0 31 4 27 10 -4
6 10 10 35 10 25 0 39 4 35 10 -4 6 13 10 44 10 28 0 51 5 51 10 0 6 33 10 80
10 47 0 80 4 80 10 0 6 18 10 40 10 22 0 40 5 40 10 0 6 121 10 344 10 219 0
347 -4 351 -10 3 -5 21 -10 39 -10 18 0 41 -8 54 -20 17 -16 35 -20 87 -20 37
0 65 -4 65 -10 0 -5 18 -10 39 -10 22 0 42 -6 45 -12 5 -10 7 -10 12 -1 7 15
44 17 44 3 0 -6 47 -10 120 -10 66 0 120 -4 120 -8 0 -14 88 -32 155 -32 35 0
67 -4 70 -10 3 -5 29 -10 56 -10 40 0 55 -5 74 -25 14 -13 25 -28 25 -33 0 -5
12 -20 28 -34 15 -14 32 -33 38 -43 9 -17 18 -15 115 33 164 81 289 171 414
297 74 74 101 121 91 161 -9 34 -79 104 -104 104 -10 0 -22 4 -27 8 -14 13
-94 43 -140 54 -152 35 -230 48 -355 60 -141 14 -638 16 -738 4 -64 -8 -75 -7
-93 10 -24 21 -69 109 -69 134 0 9 -4 20 -8 26 -4 5 -14 27 -21 49 -7 22 -16
49 -21 60 -4 11 -13 40 -20 65 -6 25 -16 53 -21 62 -5 10 -9 28 -9 40 0 13 -9
41 -20 63 -11 22 -18 31 -15 20 2 -11 7 -38 11 -60 7 -40 97 -313 129 -393 10
-24 16 -45 14 -47 -3 -2 -36 5 -74 15 -39 11 -84 20 -102 20 -42 0 -81 19 -88
42 -7 20 70 441 87 475 8 17 7 33 -4 65 -9 24 -21 63 -28 88 -7 25 -16 56 -20
70 -4 14 -13 43 -19 65 -6 22 -29 103 -51 180 -55 189 -58 201 -70 270 -6 33
-15 69 -19 80 -12 27 -28 89 -41 155 -6 30 -15 73 -20 95 -5 22 -14 69 -21
105 -7 41 -20 74 -35 90 -49 53 -201 115 -374 152 -125 27 -463 44 -560 27z
m473 -31 c12 -7 28 -11 35 -10 17 4 15 -27 -12 -158 -44 -208 -50 -230 -62
-230 -7 0 -23 12 -36 28 -22 25 -67 67 -208 197 -80 74 -162 141 -187 154 -63
32 -1 40 265 35 119 -2 191 -8 205 -16z m240 -58 c138 -59 187 -84 208 -106
37 -40 77 -274 47 -274 -7 0 -49 46 -93 102 -44 57 -91 114 -105 128 -138 138
-173 180 -151 180 13 0 55 -14 94 -30z m-776 -67 c-3 -21 -9 -50 -15 -64 -6
-15 -8 -30 -5 -33 4 -3 1 -6 -5 -6 -7 0 -13 -15 -13 -32 -2 -31 -2 -32 -6 -5
-4 25 34 177 44 177 2 0 2 -17 0 -37z m190 -32 c54 -57 29 -47 -34 14 -37 37
-47 50 -28 39 17 -10 45 -34 62 -53z m402 -5 c-9 -8 -10 -7 -5 7 3 10 7 26 7
35 1 9 4 6 6 -7 3 -13 -1 -28 -8 -35z m-12 -73 c-3 -10 -5 -2 -5 17 0 19 2 27
5 18 2 -10 2 -26 0 -35z m-1079 -33 c7 0 12 -5 12 -10 0 -15 -31 3 -55 32
l-20 23 26 -22 c14 -13 31 -23 37 -23z m-101 -39 c-1 -21 -5 -37 -9 -34 -5 2
-9 -16 -9 -41 -2 -59 -2 -63 -11 -72 -5 -4 -9 -26 -9 -48 -2 -34 -3 -36 -6
-11 -6 35 32 245 44 245 1 0 2 -18 0 -39z m949 4 c9 -8 11 -15 6 -15 -5 0 -15
7 -22 15 -7 8 -9 15 -6 15 4 0 14 -7 22 -15z m-756 -34 c19 -16 31 -33 27 -37
-4 -4 -23 9 -42 29 -42 44 -34 48 15 8z m1120 -301 c110 -107 208 -206 217
-219 14 -22 14 -32 -6 -125 -11 -56 -29 -148 -40 -206 -38 -209 -45 -240 -52
-240 -3 0 -19 17 -35 37 -34 45 -132 142 -292 291 -79 74 -122 121 -122 134 0
11 24 120 54 242 30 121 57 236 61 254 4 18 8 32 10 30 2 -2 94 -91 205 -198z
m368 63 c11 -38 34 -120 51 -183 17 -63 40 -141 51 -172 11 -32 20 -68 20 -81
0 -12 14 -65 30 -116 17 -52 29 -99 27 -104 -2 -6 -25 23 -52 64 -82 124 -158
217 -213 261 -28 22 -28 44 2 176 13 59 29 133 35 165 7 31 16 57 21 57 4 0
17 -30 28 -67z m-2232 31 c-6 -15 -34 -379 -39 -506 -1 -32 -4 -58 -7 -58 -3
0 -42 22 -85 49 -109 67 -165 117 -165 146 0 33 99 176 200 290 81 91 109 114
96 79z m172 -59 c78 -58 172 -141 172 -152 0 -4 -15 7 -33 25 -18 18 -36 32
-41 32 -7 0 -47 32 -129 102 -46 39 -24 34 31 -7z m878 22 c22 -13 64 -48 197
-162 44 -38 121 -105 171 -147 50 -43 94 -85 99 -93 5 -10 -4 -69 -27 -163
-19 -81 -45 -201 -57 -267 -13 -66 -26 -124 -31 -130 -5 -5 -31 13 -66 47 -65
63 -233 198 -307 248 -108 71 -115 86 -96 187 5 26 16 93 25 148 9 55 23 141
32 190 30 177 24 163 60 142z m170 -82 c9 -8 11 -15 6 -15 -5 0 -15 7 -22 15
-7 8 -9 15 -6 15 4 0 14 -7 22 -15z m-687 -213 c36 -32 98 -80 136 -107 87
-61 194 -146 219 -173 18 -20 17 -25 -8 -181 -14 -88 -26 -170 -26 -181 0 -11
-2 -20 -4 -20 -9 0 -238 106 -349 162 -106 53 -118 62 -113 81 3 12 14 101 25
197 33 276 33 280 44 280 6 0 40 -26 76 -58z m127 -47 c9 -8 11 -15 6 -15 -5
0 -15 7 -22 15 -7 8 -9 15 -6 15 4 0 14 -7 22 -15z m-546 -355 c36 -31 85 -70
110 -88 86 -60 110 -85 112 -117 2 -50 -22 -414 -32 -463 -4 -25 -6 -51 -3
-59 8 -21 -9 -15 -61 22 -130 92 -150 121 -227 315 -72 182 -68 158 -56 342
l10 167 41 -31 c23 -18 70 -57 106 -88z m298 -79 c9 -5 37 -18 62 -29 185 -84
360 -173 360 -184 0 -7 -7 -57 -16 -110 l-17 -97 -31 22 c-17 12 -80 64 -141
115 -60 52 -130 106 -155 120 -79 45 -90 59 -90 119 0 56 1 58 28 44z m1634
-153 c18 -24 64 -77 103 -118 38 -42 101 -114 138 -160 l68 -85 -23 -18 c-19
-16 -34 -18 -123 -12 -55 3 -145 2 -200 -4 -55 -5 -103 -6 -108 -2 -4 4 15 95
43 202 27 107 50 204 50 217 0 33 14 27 52 -20z m-559 -133 c34 -36 86 -85
117 -108 30 -23 60 -47 65 -53 6 -6 36 -30 68 -53 31 -23 57 -46 57 -51 0 -14
-2 -13 -51 14 -42 24 -259 108 -326 128 -18 5 -35 13 -38 17 -5 9 20 146 31
162 9 15 12 12 77 -56z m731 -1 c5 -14 4 -15 -9 -4 -17 14 -19 20 -6 20 5 0
12 -7 15 -16z m104 -129 c-3 -3 -9 2 -12 12 -6 14 -5 15 5 6 7 -7 10 -15 7
-18z m-806 -49 c52 -18 103 -38 114 -44 10 -5 22 -11 26 -11 4 -1 29 -12 55
-23 l48 -22 -43 -7 c-23 -5 -47 -11 -52 -14 -6 -3 -52 -17 -102 -30 -51 -13
-124 -35 -163 -49 -38 -14 -71 -24 -72 -22 -2 1 1 16 6 32 6 16 20 73 32 127
17 78 25 97 39 97 10 0 60 -15 112 -34z m-370 -236 c50 -37 58 -50 32 -50 -22
0 -333 -151 -390 -190 l-46 -31 6 33 c3 18 12 78 20 133 8 55 22 155 32 222
l17 121 141 -102 c78 -56 162 -117 188 -136z m1113 110 c11 -5 -9 -6 -45 -3
-36 3 -72 9 -80 14 -18 10 95 0 125 -11z m-253 0 c10 0 17 -4 13 -9 -7 -12
-76 -2 -90 12 -7 6 1 8 24 3 18 -3 42 -6 53 -6z m91 3 c-7 -2 -19 -2 -25 0 -7
3 -2 5 12 5 14 0 19 -2 13 -5z m214 -9 c-3 -3 -12 -4 -19 -1 -8 3 -5 6 6 6 11
1 17 -2 13 -5z m80 0 c-3 -3 -12 -4 -19 -1 -8 3 -5 6 6 6 11 1 17 -2 13 -5z
m73 -14 c0 -5 -2 -10 -4 -10 -3 0 -8 5 -11 10 -3 6 -1 10 4 10 6 0 11 -4 11
-10z m-415 -10 c3 -6 -1 -7 -9 -4 -18 7 -21 14 -7 14 6 0 13 -4 16 -10z m545
-10 l35 -8 -36 -1 c-20 0 -50 6 -65 15 l-29 16 30 -8 c17 -4 46 -10 65 -14z
m-495 -18 c-3 -3 -11 0 -18 7 -9 10 -8 11 6 5 10 -3 15 -9 12 -12z m-1750 -91
c3 -6 54 -42 113 -82 59 -39 132 -92 162 -117 30 -25 58 -48 62 -52 5 -3 -29
-36 -75 -72 -45 -36 -122 -102 -172 -147 -49 -44 -92 -81 -95 -81 -3 0 -12 24
-20 53 -19 72 -24 259 -10 395 11 103 19 127 35 103z"/>
<path d="M870 3436 c0 -8 6 -19 14 -23 7 -4 33 -25 57 -45 111 -93 194 -158
202 -158 4 0 5 -4 2 -10 -3 -5 1 -10 10 -10 9 0 18 -12 21 -30 8 -36 24 -30
24 9 0 21 -11 37 -41 62 -23 19 -49 38 -58 43 -9 5 -18 12 -21 16 -3 3 -14 13
-26 21 -12 8 -45 34 -74 59 -29 25 -65 53 -81 63 -25 16 -29 17 -29 3z"/>
<path d="M1192 3060 c0 -14 2 -19 5 -12 2 6 2 18 0 25 -3 6 -5 1 -5 -13z"/>
<path d="M1160 2870 c-6 -11 -7 -20 -2 -20 6 0 12 9 15 20 3 11 3 20 1 20 -2
0 -8 -9 -14 -20z"/>
<path d="M1172 2783 c-1 -23 -8 -44 -14 -46 -10 -4 -10 -6 0 -6 17 -1 24 20
19 61 -3 30 -4 30 -5 -9z"/>
<path d="M1128 2710 c18 -18 35 -30 38 -27 8 8 -7 35 -24 41 -9 3 -24 9 -32
12 -8 3 0 -8 18 -26z"/>
<path d="M1286 3273 c-22 -22 24 -93 60 -93 7 0 14 -4 14 -10 0 -5 7 -10 16
-10 23 0 14 16 -25 42 -19 13 -37 29 -39 37 -3 8 5 5 18 -7 16 -14 36 -22 59
-22 32 1 34 2 16 12 -11 6 -22 14 -25 17 -14 16 -86 42 -94 34z"/>
<path d="M1395 3150 c-3 -5 1 -10 9 -10 9 0 16 -4 16 -10 0 -5 6 -10 14 -10 8
0 16 -6 19 -12 2 -7 8 -10 12 -6 5 5 -5 19 -21 33 -32 27 -40 30 -49 15z"/>
<path d="M1560 3142 c0 -4 26 -19 58 -34 47 -23 52 -27 30 -28 -16 0 -28 -5
-28 -10 0 -7 -6 -7 -19 0 -11 5 -27 10 -37 10 -15 0 -15 -2 2 -18 10 -10 33
-33 49 -51 43 -48 4 -24 -64 39 -57 52 -66 57 -76 40 -3 -5 -1 -10 5 -10 6 0
25 -15 43 -32 58 -57 141 -128 150 -128 5 0 7 12 4 28 -3 15 1 38 8 52 18 31
19 86 3 93 -7 3 -39 17 -70 31 -32 14 -58 22 -58 18z"/>
<path d="M2286 2842 c6 -4 13 -12 15 -19 3 -9 9 -9 19 -3 13 9 13 11 0 20 -8
5 -22 10 -30 10 -10 0 -11 -3 -4 -8z"/>
<path d="M2277 2802 c-8 -37 -23 -102 -32 -134 l-7 -28 48 19 c27 11 57 22 67
25 20 6 18 33 -2 29 -6 -2 -11 2 -11 7 0 6 8 10 18 11 13 0 11 3 -6 10 -13 5
-20 13 -17 19 3 5 1 10 -4 10 -6 0 -11 5 -11 10 0 6 -9 19 -19 29 -19 19 -19
19 -24 -7z"/>
<path d="M2345 2820 c-3 -5 1 -10 10 -10 9 0 13 5 10 10 -3 6 -8 10 -10 10 -2
0 -7 -4 -10 -10z"/>
<path d="M2510 2764 c0 -1 8 -8 17 -15 9 -8 14 -9 10 -2 -4 6 -1 13 5 16 7 3
3 4 -9 4 -13 -1 -23 -2 -23 -3z"/>
<path d="M2558 2743 c7 -3 16 -2 19 1 4 3 -2 6 -13 5 -11 0 -14 -3 -6 -6z"/>
<path d="M2400 2710 c-13 -8 -12 -10 3 -10 9 0 17 5 17 10 0 12 -1 12 -20 0z"/>
<path d="M1719 2798 c0 -2 -2 -25 -4 -53 -2 -27 -9 -68 -15 -90 -11 -38 -21
-99 -36 -222 -6 -51 0 -64 21 -44 10 9 27 19 133 76 28 15 52 34 52 42 0 18
-10 16 -26 -4 -11 -17 -13 -16 -23 11 -7 17 -17 26 -25 23 -7 -3 -19 -1 -27 5
-11 8 -9 8 6 4 19 -6 19 -5 3 7 -10 8 -15 17 -11 20 3 4 1 7 -5 7 -6 0 -9 7
-5 17 4 11 3 14 -6 9 -8 -6 -11 2 -9 26 1 19 -2 39 -6 46 -4 7 -2 12 3 12 6 0
11 -4 11 -10 0 -14 37 -13 46 2 4 7 3 8 -4 4 -7 -4 -12 -1 -12 9 0 10 5 14 13
11 6 -3 20 -9 30 -12 9 -4 17 -10 17 -15 0 -5 7 -9 15 -9 8 0 15 -3 15 -8 0
-4 18 -18 39 -32 22 -13 38 -27 35 -31 -2 -4 4 -10 13 -12 14 -4 15 -5 2 -6
-9 0 -21 -12 -27 -26 -14 -31 -5 -32 61 -7 54 21 55 21 -38 82 -27 19 -52 36
-55 40 -3 3 -21 17 -40 30 -19 13 -37 27 -40 30 -9 10 -100 71 -101 68z m-2
-190 c-3 -8 -6 -5 -6 6 -1 11 2 17 5 13 3 -3 4 -12 1 -19z m247 -53 c-4 -8
-11 -15 -16 -15 -6 0 -5 6 2 15 7 8 14 15 16 15 2 0 1 -7 -2 -15z"/>
<path d="M1886 2525 c-4 -10 1 -15 14 -15 13 0 18 5 14 15 -4 8 -10 15 -14 15
-4 0 -10 -7 -14 -15z"/>
<path d="M1225 2521 c-6 -11 20 -33 28 -24 4 3 7 10 7 14 0 11 -29 19 -35 10z"/>
<path d="M1270 2494 c0 -9 23 -28 61 -49 99 -55 189 -146 156 -158 -7 -2 -9
-8 -4 -12 9 -10 57 14 57 29 0 6 -35 36 -78 66 -42 30 -79 57 -82 60 -8 10
-98 70 -104 70 -3 0 -6 -3 -6 -6z"/>
<path d="M1355 4470 c-3 -5 -2 -10 4 -10 5 0 13 5 16 10 3 6 2 10 -4 10 -5 0
-13 -4 -16 -10z"/>
<path d="M1315 4450 c-3 -6 1 -7 9 -4 18 7 21 14 7 14 -6 0 -13 -4 -16 -10z"/>
<path d="M2440 2170 c0 -5 5 -10 10 -10 6 0 10 5 10 10 0 6 -4 10 -10 10 -5 0
-10 -4 -10 -10z"/>
</g>
</svg>
